<?xml version="1.0" standalone="no"?>
<!DOCTYPE svg PUBLIC "-//W3C//DTD SVG 20010904//EN"
 "http://www.w3.org/TR/2001/REC-SVG-20010904/DTD/svg10.dtd">
<svg version="1.0" xmlns="http://www.w3.org/2000/svg"
 width="700.000000pt" height="700.000000pt" viewBox="0 0 700.000000 700.000000"
 preserveAspectRatio="xMidYMid meet">
<metadata>
Created by potrace 1.14, written by Peter Selinger 2001-2017
</metadata>
<g transform="translate(0.000000,700.000000) scale(0.100000,-0.100000)"
fill="#000000" stroke="none">
<path d="M3429 6878 c-35 -62 -76 -133 -90 -158 -100 -172 -220 -380 -304
-525 -54 -93 -120 -207 -146 -253 -27 -45 -49 -87 -49 -92 0 -6 -4 -10 -10
-10 -5 0 -10 -4 -10 -10 0 -5 -20 -44 -45 -86 -25 -41 -45 -77 -45 -79 0 -3
-25 -45 -55 -95 -30 -50 -55 -92 -55 -94 0 -2 -18 -34 -40 -70 -22 -36 -40
-70 -40 -76 0 -5 -4 -10 -10 -10 -5 0 -10 -4 -10 -9 0 -8 -238 -427 -325 -571
-18 -30 -44 -76 -58 -101 -38 -67 -226 -391 -237 -409 -6 -8 -16 -26 -23 -40
-6 -14 -37 -68 -68 -120 -31 -52 -66 -111 -76 -130 -11 -19 -61 -106 -112
-194 -50 -87 -91 -160 -91 -163 0 -2 -8 -16 -19 -31 -17 -25 -249 -424 -309
-532 -13 -25 -39 -70 -57 -100 -61 -101 -218 -374 -248 -430 -16 -30 -36 -62
-43 -71 -8 -8 -14 -18 -14 -22 0 -3 -30 -57 -66 -119 -37 -62 -78 -133 -92
-158 -14 -25 -67 -117 -117 -205 l-93 -160 1514 -3 c833 -1 2196 -1 3029 0
l1514 3 -69 118 c-39 66 -70 121 -70 124 0 3 -8 17 -19 31 -10 15 -33 54 -51
87 -41 74 -50 90 -140 245 -40 69 -132 226 -203 350 -71 124 -138 239 -147
255 -69 118 -207 357 -226 392 -13 23 -54 93 -90 155 -37 62 -78 133 -92 158
-24 44 -112 197 -243 420 -37 63 -79 138 -94 165 -16 28 -53 93 -83 145 -104
179 -363 627 -565 977 -57 100 -107 188 -111 195 -3 7 -15 27 -25 43 -10 17
-45 75 -76 130 -32 55 -65 114 -75 130 -10 17 -93 161 -185 320 -92 160 -192
333 -222 385 -31 52 -61 104 -67 115 -54 98 -172 295 -177 295 -4 0 -35 -51
-70 -112z"/>
</g>
</svg>
